# xmcd
# Copyright (C) 1995-1998 Ti Kan
#
# Track frame offsets:
#       150
#       14941
#       27400
#       42502
#       57099
#       70199
#       85579
#       103738
#       113057
#       128610
#       140109
#       155831
#
# Disc length: 2379 seconds
#
# Revision: 0
# Processed by: cddbd v1.5.2PL0 Copyright (c) Steve Scherf et al.
# Submitted via: CD-Import v1.0
#
DISCID=aa09490c
DTITLE=Giulia Y Los Tellarini - L'arrabbiata
DYEAR=12
DGENRE=
TTITLE0=01 El Gato De Mi Vecina
TTITLE1=02 Gabriella
TTITLE2=03 Caricias
TTITLE3=04 Warszawa
TTITLE4=05 Il Ne M'aime Pas
TTITLE5=06 Turtle
TTITLE6=07 Jail
TTITLE7=08 Le Dolce Parfum
TTITLE8=09 Le Parfum
TTITLE9=10 Il Cuore
TTITLE10=11 Loko Amor
TTITLE11=12 Maldita Fe
EXTD=
EXTT0=
EXTT1=
EXTT2=
EXTT3=
EXTT4=
EXTT5=
EXTT6=
EXTT7=
EXTT8=
EXTT9=
EXTT10=
EXTT11=
PLAYORDER=
